<svg width="3445" height="1452" viewBox="0 0 3445 1452" fill="none" xmlns="http://www.w3.org/2000/svg">
<path d="M75 108H1966V1360L1546.5 991.645H75V108Z" fill="#FFDE34"/>
<path d="M262.155 711.838C245.749 711.838 231.662 706.038 219.896 694.438C208.296 682.837 202.496 668.751 202.496 652.179C202.496 635.938 208.296 622.018 219.896 610.418C231.662 598.817 245.749 593.017 262.155 593.017C278.064 593.017 291.984 598.817 303.916 610.418C315.848 622.018 321.814 635.938 321.814 652.179C321.814 663.116 318.997 673.143 313.362 682.257C307.893 691.206 300.685 698.415 291.736 703.884C282.787 709.187 272.927 711.838 262.155 711.838ZM262.155 462.016C245.749 462.016 231.662 456.215 219.896 444.615C208.296 433.015 202.496 418.928 202.496 402.357C202.496 386.116 208.296 372.278 219.896 360.844C231.662 349.243 245.749 343.443 262.155 343.443C278.064 343.443 291.984 349.243 303.916 360.844C315.848 372.278 321.814 386.116 321.814 402.357C321.814 413.46 318.997 423.569 313.362 432.683C307.893 441.632 300.685 448.758 291.736 454.061C282.787 459.364 272.927 462.016 262.155 462.016ZM410.743 771V261.909H614.578C652.031 261.909 683.269 267.461 708.293 278.564C733.317 289.667 752.126 305.079 764.721 324.8C777.315 344.355 783.613 366.893 783.613 392.413C783.613 412.3 779.635 429.783 771.681 444.864C763.726 459.778 752.789 472.042 738.868 481.653C725.114 491.099 709.37 497.811 691.638 501.788V506.76C711.027 507.589 729.174 513.057 746.077 523.166C763.146 533.275 776.984 547.444 787.59 565.673C798.196 583.737 803.499 605.28 803.499 630.304C803.499 657.316 796.787 681.429 783.364 702.641C770.106 723.687 750.469 740.342 724.451 752.605C698.433 764.868 666.366 771 628.25 771H410.743ZM518.378 683.003H606.127C636.122 683.003 657.997 677.286 671.752 665.851C685.507 654.25 692.384 638.839 692.384 619.615C692.384 605.529 688.987 593.1 682.192 582.328C675.398 571.556 665.703 563.105 653.108 556.973C640.679 550.841 625.847 547.776 608.613 547.776H518.378V683.003ZM518.378 474.942H598.172C612.921 474.942 626.013 472.373 637.448 467.236C649.048 461.933 658.163 454.475 664.792 444.864C671.586 435.252 674.983 423.734 674.983 410.311C674.983 391.916 668.437 377.084 655.346 365.815C642.419 354.546 624.025 348.912 600.161 348.912H518.378V474.942ZM977.442 261.909V771H871.548V261.909H977.442ZM1234.78 778.457C1196.17 778.457 1162.78 770.254 1134.61 753.848C1106.6 737.276 1084.97 714.241 1069.73 684.743C1054.48 655.079 1046.86 620.692 1046.86 581.582C1046.86 542.141 1054.48 507.671 1069.73 478.173C1084.97 448.509 1106.6 425.474 1134.61 409.068C1162.78 392.496 1196.17 384.21 1234.78 384.21C1273.4 384.21 1306.71 392.496 1334.71 409.068C1362.89 425.474 1384.6 448.509 1399.84 478.173C1415.09 507.671 1422.71 542.141 1422.71 581.582C1422.71 620.692 1415.09 655.079 1399.84 684.743C1384.6 714.241 1362.89 737.276 1334.71 753.848C1306.71 770.254 1273.4 778.457 1234.78 778.457ZM1235.28 696.426C1252.85 696.426 1267.51 691.455 1279.28 681.511C1291.05 671.402 1299.91 657.648 1305.88 640.247C1312.01 622.847 1315.08 603.043 1315.08 580.837C1315.08 558.63 1312.01 538.827 1305.88 521.426C1299.91 504.026 1291.05 490.271 1279.28 480.162C1267.51 470.053 1252.85 464.999 1235.28 464.999C1217.55 464.999 1202.63 470.053 1190.54 480.162C1178.61 490.271 1169.57 504.026 1163.44 521.426C1157.48 538.827 1154.49 558.63 1154.49 580.837C1154.49 603.043 1157.48 622.847 1163.44 640.247C1169.57 657.648 1178.61 671.402 1190.54 681.511C1202.63 691.455 1217.55 696.426 1235.28 696.426ZM1663.58 922.136C1629.28 922.136 1599.86 917.413 1575.34 907.967C1550.98 898.687 1531.59 886.009 1517.17 869.935C1502.75 853.86 1493.39 835.796 1489.08 815.744L1587.02 802.57C1590 810.193 1594.73 817.319 1601.19 823.947C1607.65 830.576 1616.19 835.879 1626.79 839.857C1637.57 844 1650.66 846.071 1666.07 846.071C1689.11 846.071 1708.08 840.437 1722.99 829.168C1738.08 818.064 1745.62 799.421 1745.62 773.237V703.386H1741.14C1736.5 713.992 1729.54 724.018 1720.26 733.464C1710.98 742.911 1699.05 750.616 1684.46 756.582C1669.88 762.548 1652.48 765.531 1632.26 765.531C1603.59 765.531 1577.49 758.902 1553.96 745.645C1530.59 732.222 1511.95 711.755 1498.03 684.246C1484.28 656.571 1477.4 621.604 1477.4 579.345C1477.4 536.092 1484.44 499.965 1498.53 470.964C1512.61 441.964 1531.34 420.254 1554.71 405.837C1578.24 391.419 1604.01 384.21 1632.01 384.21C1653.39 384.21 1671.29 387.856 1685.71 395.148C1700.13 402.274 1711.73 411.223 1720.51 421.994C1729.46 432.6 1736.34 443.041 1741.14 453.315H1745.12V389.182H1850.27V774.729C1850.27 807.21 1842.31 834.388 1826.4 856.263C1810.49 878.138 1788.45 894.544 1760.28 905.482C1732.27 916.585 1700.04 922.136 1663.58 922.136ZM1665.82 685.986C1682.89 685.986 1697.31 681.76 1709.07 673.308C1721.01 664.691 1730.12 652.428 1736.42 636.518C1742.88 620.444 1746.11 601.22 1746.11 578.848C1746.11 556.476 1742.96 537.087 1736.67 520.68C1730.37 504.108 1721.25 491.265 1709.32 482.151C1697.39 473.036 1682.89 468.479 1665.82 468.479C1648.42 468.479 1633.75 473.202 1621.82 482.648C1609.89 491.928 1600.86 504.854 1594.73 521.426C1588.6 537.998 1585.53 557.139 1585.53 578.848C1585.53 600.889 1588.6 619.946 1594.73 636.021C1601.02 651.93 1610.06 664.277 1621.82 673.06C1633.75 681.677 1648.42 685.986 1665.82 685.986Z" fill="black"/>
<path d="M2010.25 771V261.909H2117.88V471.959H2336.38V261.909H2443.77V771H2336.38V560.702H2117.88V771H2010.25ZM2775.38 608.429V389.182H2881.27V771H2779.6V701.646H2775.62C2767.01 724.018 2752.67 741.999 2732.62 755.588C2712.73 769.177 2688.46 775.972 2659.79 775.972C2634.26 775.972 2611.81 770.171 2592.42 758.571C2573.03 746.971 2557.87 730.482 2546.93 709.104C2536.16 687.726 2530.69 662.122 2530.52 632.293V389.182H2636.42V613.401C2636.58 635.938 2642.63 653.753 2654.57 666.845C2666.5 679.937 2682.49 686.483 2702.54 686.483C2715.3 686.483 2727.23 683.583 2738.34 677.783C2749.44 671.817 2758.39 663.034 2765.18 651.433C2772.14 639.833 2775.54 625.498 2775.38 608.429ZM2967.96 771V261.909H3073.86V453.315H3077.09C3081.73 443.041 3088.44 432.6 3097.22 421.994C3106.17 411.223 3117.77 402.274 3132.02 395.148C3146.44 387.856 3164.34 384.21 3185.72 384.21C3213.56 384.21 3239.25 391.502 3262.78 406.085C3286.31 420.503 3305.12 442.295 3319.2 471.462C3333.29 500.463 3340.33 536.838 3340.33 580.588C3340.33 623.178 3333.46 659.139 3319.7 688.472C3306.11 717.638 3287.55 739.762 3264.02 754.842C3240.65 769.757 3214.47 777.214 3185.47 777.214C3164.92 777.214 3147.44 773.817 3133.02 767.023C3118.77 760.228 3107.08 751.694 3097.97 741.419C3088.85 730.979 3081.89 720.455 3077.09 709.849H3072.37V771H2967.96ZM3071.62 580.091C3071.62 602.794 3074.77 622.598 3081.07 639.501C3087.36 656.405 3096.48 669.58 3108.41 679.026C3120.34 688.306 3134.84 692.946 3151.91 692.946C3169.15 692.946 3183.73 688.223 3195.66 678.777C3207.59 669.165 3216.62 655.908 3222.76 639.004C3229.05 621.935 3232.2 602.297 3232.2 580.091C3232.2 558.05 3229.14 538.661 3223 521.923C3216.87 505.186 3207.84 492.094 3195.91 482.648C3183.98 473.202 3169.31 468.479 3151.91 468.479C3134.68 468.479 3120.09 473.036 3108.16 482.151C3096.39 491.265 3087.36 504.191 3081.07 520.929C3074.77 537.667 3071.62 557.387 3071.62 580.091Z" fill="black"/>
</svg>
