<svg width="884" height="884" viewBox="0 0 884 884" fill="none" xmlns="http://www.w3.org/2000/svg">
<rect width="884" height="884" fill="#FFDE34"/>
<path d="M251.139 212.935C251.139 199.346 255.945 187.662 265.557 177.885C275.334 168.107 287.1 163.219 300.855 163.219C314.444 163.219 326.045 168.107 335.656 177.885C345.434 187.662 350.322 199.346 350.322 212.935C350.322 226.524 345.434 238.207 335.656 247.984C326.045 257.762 314.444 262.651 300.855 262.651C291.741 262.651 283.372 260.33 275.749 255.69C268.291 251.216 262.325 245.25 257.851 237.793C253.376 230.335 251.139 222.049 251.139 212.935ZM506.182 212.935C506.182 199.346 510.988 187.662 520.599 177.885C530.377 168.107 542.143 163.219 555.898 163.219C569.487 163.219 581.087 168.107 590.699 177.885C600.476 187.662 605.365 199.346 605.365 212.935C605.365 226.524 600.476 238.207 590.699 247.984C581.087 257.762 569.487 262.651 555.898 262.651C546.783 262.651 538.414 260.33 530.791 255.69C523.334 251.216 517.368 245.25 512.893 237.793C508.419 230.335 506.182 222.049 506.182 212.935ZM188 368.173L697.091 368.173L697.091 554.607C697.091 590.734 691.125 620.647 679.193 644.344C667.427 668.042 651.435 685.774 631.217 697.54C611.165 709.307 588.544 715.19 563.355 715.19C542.143 715.19 524.245 711.295 509.662 703.506C495.244 695.718 483.644 685.277 474.861 672.185C466.243 659.259 459.946 645.007 455.969 629.43L450.997 629.43C450.169 646.333 444.7 662.822 434.591 678.897C424.648 695.138 410.479 708.561 392.084 719.167C373.689 729.773 351.317 735.076 324.967 735.076C298.949 735.076 275.583 728.944 254.868 716.681C234.319 704.584 217.995 685.857 205.898 660.502C193.966 635.147 188 602.749 188 563.308L188 368.173ZM253.874 444.984L253.874 555.85C253.874 592.64 261 618.989 275.251 634.898C289.503 650.808 307.318 658.762 328.696 658.762C344.771 658.762 359.52 654.702 372.943 646.582C386.366 638.461 397.055 626.861 405.01 611.781C412.964 596.866 416.942 579.134 416.942 558.585L416.942 444.984L253.874 444.984ZM476.849 444.984L476.849 547.896C476.849 565.13 480.164 580.625 486.793 594.38C493.421 608.3 502.702 619.321 514.634 627.441C526.731 635.727 540.983 639.87 557.389 639.87C578.436 639.87 596.085 632.496 610.337 617.746C624.589 602.997 631.714 580.377 631.714 549.884L631.714 444.984L476.849 444.984Z" fill="black"/>
</svg>
