<svg width="613" height="449" viewBox="0 0 613 449" fill="none" xmlns="http://www.w3.org/2000/svg">
<path d="M30.3999 0.333008C13.9052 0.333008 0.535889 13.7023 0.535889 30.197C0.535889 46.6917 13.9052 60.061 30.3999 60.061H582.933C599.428 60.061 612.797 46.6917 612.797 30.197C612.797 13.7023 599.428 0.333008 582.933 0.333008H30.3999ZM30.3999 194.466C13.9052 194.466 0.535889 207.836 0.535889 224.33C0.535889 240.825 13.9052 254.194 30.3999 254.194H582.933C599.428 254.194 612.797 240.825 612.797 224.33C612.797 207.836 599.428 194.466 582.933 194.466H30.3999ZM30.3999 388.6C13.9052 388.6 0.535889 401.969 0.535889 418.464C0.535889 434.958 13.9052 448.328 30.3999 448.328H582.933C599.428 448.328 612.797 434.958 612.797 418.464C612.797 401.969 599.428 388.6 582.933 388.6H30.3999Z" fill="black"/>
</svg>
