<?xml version="1.0" standalone="no"?>
<!DOCTYPE svg PUBLIC "-//W3C//DTD SVG 20010904//EN"
 "http://www.w3.org/TR/2001/REC-SVG-20010904/DTD/svg10.dtd">
<svg version="1.0" xmlns="http://www.w3.org/2000/svg"
 width="884.000000pt" height="884.000000pt" viewBox="0 0 884.000000 884.000000"
 preserveAspectRatio="xMidYMid meet">
<metadata>
Created by potrace 1.14, written by Peter Selinger 2001-2017
</metadata>
<g transform="translate(0.000000,884.000000) scale(0.100000,-0.100000)"
fill="#000000" stroke="none">
<path d="M2905 7198 c-86 -16 -174 -65 -246 -137 -249 -249 -172 -658 151
-805 239 -109 521 -3 642 240 38 77 41 91 46 181 8 166 -28 262 -140 379 -119
124 -281 175 -453 142z"/>
<path d="M5455 7198 c-160 -30 -310 -163 -365 -323 -141 -410 285 -799 675
-616 70 32 170 121 213 189 96 151 98 373 3 521 -116 181 -318 269 -526 229z"/>
<path d="M1883 4033 c4 -1213 3 -1186 57 -1438 64 -291 189 -540 366 -725 106
-111 188 -171 329 -240 217 -107 413 -146 680 -137 305 11 507 77 728 235 92
66 216 192 276 281 96 140 170 332 187 480 6 54 9 61 28 61 19 0 26 -13 50
-87 61 -191 152 -350 270 -472 130 -134 276 -219 461 -267 132 -34 379 -44
530 -20 539 83 918 442 1060 1003 60 240 58 202 62 1376 l4 1077 -2546 0
-2546 0 4 -1127z m2284 -305 c-3 -585 -6 -672 -21 -737 -28 -118 -73 -232
-128 -321 -163 -265 -419 -412 -718 -414 -145 0 -211 14 -329 71 -79 38 -108
59 -181 131 -96 97 -141 171 -184 310 -58 186 -59 190 -63 935 l-4 687 816 0
816 0 -4 -662z m2150 45 c-5 -667 -6 -690 -62 -853 -38 -110 -93 -196 -183
-282 -160 -153 -374 -220 -604 -189 -170 23 -296 82 -419 198 -118 111 -197
250 -247 433 l-26 95 -4 608 -3 607 776 0 777 0 -5 -617z"/>
</g>
</svg>
